
        <svg xmlns="http://www.w3.org/2000/svg" xmlns:xlink="http://www.w3.org/1999/xlink" version="1.1" width="3187.5" height="1140.6143679973088" viewBox="0 0 3187.5 1140.6143679973088">
			
			<g transform="scale(9.375) translate(10, 10)">
				<defs id="SvgjsDefs6819"/><g id="SvgjsG6820" featureKey="symbolFeature-0" transform="matrix(1.0827692747116089,0,0,1.0827692747116089,-4.138344088853297,-3.3814898043882917)" fill="#000"><path xmlns="http://www.w3.org/2000/svg" d="M76.339,22.696c0,0-0.014-0.016-0.02-0.021c0-0.005,0-0.026,0-0.026s0,0.021,0,0.025c-0.013-0.014-0.038-0.042-0.078-0.087  c0.087-0.003,0.145-0.005,0.145-0.005s-0.061-0.001-0.152-0.003c-0.639-0.708-4.412-4.872-9.29-9.749  c-4.887-4.887-9.17-8.779-9.886-9.426c-0.003-0.091-0.004-0.153-0.004-0.153s-0.002,0.058-0.006,0.145  c-0.044-0.04-0.072-0.065-0.086-0.078c0.008,0,0.025,0,0.025,0s-0.018,0-0.025,0c-0.006-0.005-0.021-0.02-0.021-0.02  s0.014,0.015,0.019,0.02c-0.603-0.002-20.496-0.076-52.87-0.195H4.088c-0.071,0-0.127,0.058-0.127,0.128  C3.924,27.296,3.876,59.905,3.822,95.72c0,0.35,0,0.698,0,1.03v0.001c0,0.146,0.12,0.266,0.267,0.266  c26.815-0.032,51.996-0.063,72.297-0.088h0.001c0.099,0,0.179-0.08,0.178-0.179c-0.146-44.292-0.243-73.456-0.245-74.072  C76.324,22.683,76.339,22.696,76.339,22.696z M66.635,13.274c4.85,4.85,8.86,8.629,9.578,9.303  c-1.206-0.025-9.285-0.189-18.959-0.195c0-0.002,0-0.005,0-0.007c0-9.868-0.17-17.766-0.196-18.953  C57.751,4.158,61.766,8.405,66.635,13.274z M76.177,96.541c-17.998-0.015-43.981-0.035-71.821-0.058c0-0.557,0-1.17,0-1.796  C4.322,58.715,4.292,26.184,4.271,3.432c32.785-0.072,52.09-0.114,52.688-0.115c0.013,0.014,0.042,0.045,0.089,0.094  c-0.043,1.167-0.327,9.202-0.327,19.101c0,0.048,0,0.097,0,0.137c0,0.147,0.119,0.267,0.267,0.267  c9.852-0.003,18.052-0.285,19.236-0.328c0.05,0.047,0.082,0.077,0.096,0.09C76.318,23.29,76.265,51.146,76.177,96.541z"/><path xmlns="http://www.w3.org/2000/svg" d="M64.296,53.982L64.296,53.982L64.296,53.982c0-0.004-0.021-0.521-0.063-1.51c-0.012-0.496-0.037-1.11-0.165-1.827  c-0.108-0.718-0.189-1.557-0.454-2.467c-0.382-1.853-1.227-4.04-2.541-6.388c-1.335-2.335-3.281-4.792-5.965-6.9  c-2.671-2.105-6.082-3.857-10.027-4.705c-2.004-0.339-4.043-0.612-6.212-0.445c-1.078,0.002-2.152,0.214-3.248,0.369  c-0.548,0.079-1.08,0.256-1.626,0.382c-0.545,0.135-1.095,0.264-1.623,0.479c-4.304,1.444-8.438,4.24-11.458,8.194  c-0.359,0.506-0.778,0.976-1.093,1.518c-0.326,0.536-0.654,1.073-0.983,1.613c-0.56,1.133-1.15,2.268-1.547,3.494l-0.333,0.907  l-0.246,0.938c-0.142,0.632-0.369,1.245-0.441,1.9c-0.099,0.648-0.198,1.299-0.297,1.952c-0.034,0.649-0.067,1.3-0.101,1.953  c-0.036,2.657,0.312,5.264,1.058,7.739c0.79,2.458,1.939,4.751,3.366,6.802c2.891,4.081,6.918,7.108,11.224,8.709  c2.131,0.873,4.371,1.26,6.533,1.5c1.072,0.035,2.151,0.151,3.208,0.045c0.527-0.034,1.052-0.047,1.569-0.098  c0.513-0.081,1.023-0.161,1.528-0.24c4.048-0.661,7.558-2.415,10.324-4.495c2.778-2.095,4.813-4.566,6.218-6.933  c1.402-2.373,2.253-4.624,2.675-6.517c0.268-0.935,0.381-1.79,0.48-2.529c0.051-0.369,0.099-0.711,0.142-1.022  c0.014-0.315,0.025-0.602,0.036-0.857C64.273,54.522,64.296,53.987,64.296,53.982v0.002V53.982z M64.207,55.563  c-0.015,0.26-0.03,0.55-0.048,0.869c-0.05,0.314-0.104,0.659-0.162,1.032c-0.059,0.372-0.122,0.773-0.189,1.202  c-0.078,0.426-0.219,0.869-0.336,1.345c-0.464,1.899-1.342,4.16-2.806,6.513c-1.455,2.349-3.543,4.783-6.357,6.82  c-1.388,1.045-3.001,1.898-4.719,2.682c-1.761,0.673-3.635,1.306-5.652,1.564c-2.009,0.36-4.1,0.323-6.271,0.156  c-2.121-0.283-4.304-0.763-6.404-1.632c-2.08-0.894-4.134-2.021-5.97-3.525c-1.828-1.505-3.485-3.286-4.876-5.312  c-2.694-4.09-4.27-9.167-3.983-14.346c0.014-1.32,0.25-2.571,0.448-3.824c0.159-0.618,0.317-1.233,0.474-1.846  c0.144-0.617,0.414-1.192,0.613-1.788c0.913-2.333,2.116-4.526,3.654-6.406c1.534-1.878,3.294-3.506,5.206-4.839  c1.946-1.278,3.999-2.295,6.109-2.989c4.225-1.325,8.604-1.45,12.425-0.614c3.847,0.853,7.181,2.566,9.796,4.631  c2.627,2.066,4.54,4.472,5.857,6.76c0.371,0.55,0.613,1.145,0.892,1.692c0.277,0.549,0.533,1.082,0.71,1.621  c0.196,0.531,0.385,1.039,0.564,1.523c0.131,0.5,0.256,0.975,0.373,1.424c0.273,0.892,0.351,1.718,0.474,2.421  c0.136,0.704,0.163,1.309,0.185,1.797c0.055,0.973,0.084,1.481,0.084,1.485C64.296,53.987,64.266,54.531,64.207,55.563z"/><path xmlns="http://www.w3.org/2000/svg" d="M34.277,46.366c0,0-1.959,1.451-4.123,3.568c-1.989,1.946-3.441,3.758-3.665,4.041c-0.017-0.014-0.046-0.038-0.046-0.038  s0.024,0.03,0.038,0.048c-0.013,0.018-0.038,0.048-0.038,0.048s0.03-0.024,0.045-0.038c0.221,0.282,1.626,2.046,3.61,3.988  c2.163,2.117,4.178,3.622,4.178,3.622s-1.669-1.913-3.832-4.03c-1.978-1.937-3.667-3.358-3.944-3.59  c0.28-0.236,2.067-1.751,4.055-3.697C32.718,48.171,34.277,46.366,34.277,46.366z"/><path xmlns="http://www.w3.org/2000/svg" d="M46.291,61.698c0,0,1.949-1.627,4.112-3.744c2.164-2.117,3.722-3.922,3.722-3.922s-1.96,1.45-4.123,3.567  S46.291,61.698,46.291,61.698z"/><path xmlns="http://www.w3.org/2000/svg" d="M50.292,49.907c-2.163-2.117-4.001-3.637-4.001-3.637s1.493,1.928,3.656,4.045c2.163,2.117,4.178,3.622,4.178,3.622  S52.456,52.023,50.292,49.907z"/><path xmlns="http://www.w3.org/2000/svg" d="M38.172,64.64c0,0,1.209-4.639,2.313-10.53s1.687-10.804,1.687-10.804s-1.12,4.889-2.225,10.78  C38.842,59.978,38.172,64.64,38.172,64.64z"/><path xmlns="http://www.w3.org/2000/svg" d="M96.147,5.413c-0.083-0.815-0.677-1.536-1.45-1.824c-0.212-0.072-0.42-0.125-0.589-0.129l-0.135-0.014l-0.034-0.003  l-0.061-0.001h-0.068h-0.271l-1.09,0c-0.728,0-1.458,0-2.19,0c-1.465,0-2.922,0-4.37,0.001c-0.341,0.004-0.755-0.025-1.152,0.113  c-0.395,0.111-0.744,0.353-1.013,0.655c-0.285,0.29-0.443,0.689-0.538,1.101l-0.026,0.268c-0.004,0.056-0.011,0.063-0.012,0.16  v0.134l0.001,0.536c0.003,2.858,0.007,5.676,0.011,8.448c0.013,5.542,0.025,10.896,0.037,16.002  c0.043,10.21,0.082,19.431,0.115,27.188c0.102,15.353,0.165,24.952,0.166,25.144c-0.001-0.003-0.006-0.011-0.006-0.011  s0.004,0.011,0.006,0.016c0,0.001,0,0.013,0,0.013s0-0.009,0-0.012c0.004,0.011,0.013,0.034,0.024,0.068  c-0.055,0.006-0.091,0.01-0.091,0.01s0.038,0.003,0.097,0.007c0.195,0.536,1.218,3.297,2.766,6.538  c1.52,3.181,3.035,5.754,3.376,6.324c-0.031,0.076-0.049,0.12-0.049,0.12s0.023-0.038,0.061-0.101  c0.037,0.062,0.061,0.101,0.061,0.101s-0.019-0.045-0.049-0.119c0.337-0.561,1.815-3.059,3.332-6.233  c1.551-3.246,2.609-6.085,2.809-6.63c0.061-0.004,0.098-0.007,0.098-0.007s-0.036-0.004-0.091-0.011  c0.012-0.034,0.021-0.057,0.024-0.067c0,0.001,0,0.012,0,0.012s0-0.012,0-0.013c0.002-0.005,0.006-0.016,0.006-0.016  s-0.005,0.008-0.006,0.011c0.001-0.19,0.064-9.495,0.166-24.547c0.033-7.607,0.071-16.678,0.115-26.777  C96.138,26.817,96.15,21.51,96.163,16c0.004-2.755,0.008-5.56,0.011-8.409C96.162,6.864,96.204,6.197,96.147,5.413z M83.722,5.315  c0.056-0.135,0.069-0.273,0.161-0.409c0.132-0.284,0.37-0.506,0.629-0.674c0.263-0.176,0.579-0.234,0.89-0.257l1.084-0.001  c1.449,0,2.906,0,4.371,0c0.733,0,1.463,0,2.19,0c0.75,0.004,1.433-0.064,1.917,0.366c0.262,0.178,0.431,0.458,0.559,0.737  c0.113,0.3,0.128,0.584,0.123,0.963c0.001,0.717,0.001,1.431,0.001,2.142c0.001,1.282,0.002,2.551,0.003,3.813  c-0.762-0.081-3.118-0.304-5.944-0.304c-2.84,0-5.263,0.226-6.034,0.306c0.002-2.041,0.004-4.096,0.005-6.179  C83.671,5.694,83.701,5.471,83.722,5.315z M83.478,83.19c0.002-0.37,0.04-10.085,0.101-25.443c0.02-7.83,0.043-17.125,0.068-27.393  c0.008-5.134,0.015-10.511,0.022-16.069c0.001-0.742,0.001-1.495,0.002-2.243c0.763,0.047,3.144,0.178,5.921,0.183  c-0.025,2.154-0.197,17.617-0.197,35.861c0,18.2,0.171,32.772,0.197,34.857c-3.021,0.006-5.547,0.263-6.074,0.32  C83.496,83.224,83.482,83.199,83.478,83.19z M92.502,89.728c-1.5,3.139-2.583,5.755-2.841,6.388  c-0.271-0.656-1.423-3.421-2.929-6.572c-1.536-3.217-2.918-5.743-3.204-6.261c0.565,0.036,3.17,0.192,6.221,0.192  c3.035,0,5.494-0.154,6.045-0.192C95.502,83.816,94.045,86.497,92.502,89.728z M95.805,83.263c-0.525-0.06-3.035-0.321-6.1-0.321  c-0.035,0-0.069,0.001-0.104,0.001c0.042-2.103,0.327-16.897,0.327-35.108c0-18.233-0.286-33.473-0.328-35.61c0.051,0,0.1,0,0.149,0  c2.821,0,5.145-0.133,5.9-0.182c0.002,1.524,0.003,3.036,0.004,4.53c0.008,5.493,0.016,10.777,0.022,15.799  c0.026,10.043,0.049,19.04,0.068,26.571c0.062,14.907,0.1,24.062,0.101,24.248C95.84,83.199,95.826,83.224,95.805,83.263z"/></g><g id="SvgjsG6821" featureKey="vMvB0T-0" transform="matrix(1.6147396564483643,0,0,1.6147396564483643,120.45729430277994,15.617698394844934)" fill="#000"><path d="M2.5293 20.19531 l-2.8125 0 l2.9883 -14.072 l8.7402 0 q1.240234375 0 1.9140625 0.87890625 q0.673828125 0.83984375 0.419921875 2.03125 l-1.7578 8.2422 q-0.25390625 1.19140625 -1.279296875 2.041015625 q-1.044921875 0.869140625 -2.28515625 0.869140625 l-2.4219 0 l0.57617 -2.7148 l2.4219 0 q0.0390625 0 0.09765625 -0.048828125 q0.068359375 -0.048828125 0.087890625 -0.146484375 l1.7578 -8.2422 q0.01953125 -0.09765625 -0.029296875 -0.146484375 q-0.0390625 -0.048828125 -0.078125 -0.048828125 l-5.9277 0 z M23.0566 11.8066 l6.8164 0 l-0.57617 2.7148 l-6.8164 0 z M21.85547 17.4805 l11.318 0 l-0.57617 2.7148 l-11.318 0 z M24.2676 6.1129999999999995 l11.318 0 l-0.57617 2.7148 l-11.318 0 z M43.0664075 17.4805 l9.4531 0 l-0.57617 2.7148 l-9.4531 0 z M45.4785375 6.132999999999999 l2.8125 0 l-1.8945 8.916 l-2.8125 0 z M76.50390625 20.19531 l-3.1152 0 l-0.52734 -1.9336 l-2.7344 0 l0.57617 -2.7148 l1.3965 0 l-1.123 -4.1113 l-6.1328 8.7598 l-3.1152 0 l10.449 -14.385 z M102.568671875 6.122999999999999 l-2.9883 14.072 l-2.8027 0 l2.9883 -14.072 l2.8027 0 z M91.914071875 6.122999999999999 l3.125 5.1465 l-0.92773 4.3848 l-3.0371 -5.0098 l-2.0313 9.5508 l-2.8125 0 l2.9883 -14.072 l2.6953 0 z M121.181328125 6.132999999999999 q1.240234375 0 1.9140625 0.87890625 q0.6640625 0.83984375 0.41015625 2.03125 l-1.1426 5.4199 l-2.8027 0 l1.1426 -5.4199 q0.029296875 -0.09765625 -0.01953125 -0.146484375 q-0.0390625 -0.048828125 -0.078125 -0.048828125 l-5.7813 0 q-0.048828125 0 -0.126953125 0.05859375 q-0.0390625 0.0390625 -0.068359375 0.13671875 l-1.748 8.252 q-0.01953125 0.09765625 0.01953125 0.15625 q0.029296875 0.029296875 0.087890625 0.029296875 l8.7305 0 q-0.44921875 1.279296875 -1.416015625 1.97265625 q-0.986328125 0.7421875 -2.109375 0.7421875 l-5.7813 0 q-1.240234375 0 -1.93359375 -0.869140625 q-0.6640625 -0.849609375 -0.41015625 -2.03125 l1.748 -8.252 q0.25390625 -1.19140625 1.298828125 -2.05078125 t2.2852 -0.85938 l5.7813 0 z"/></g><g id="SvgjsG6822" featureKey="vMvB0T-1" transform="matrix(1.3350716829299927,0,0,1.3350716829299927,120.3780923418147,50.24268405720339)" fill="#000"><path d="M2.7051 6.122999999999999 l2.8125 0 l-2.9883 14.072 l-2.8125 0 z M18.69136875 20.19531 l-3.2227 0 q-1.240234375 0 -1.93359375 -0.869140625 q-0.6640625 -0.849609375 -0.41015625 -2.041015625 l1.748 -8.2422 q0.25390625 -1.19140625 1.298828125 -2.05078125 t2.2852 -0.85938 l5.7813 0 q1.240234375 0 1.9140625 0.87890625 q0.6640625 0.83984375 0.41015625 2.03125 l-0.25391 1.2305 l-2.8027 0 l0.25391 -1.2305 q0.029296875 -0.09765625 -0.01953125 -0.146484375 q-0.0390625 -0.048828125 -0.078125 -0.048828125 l-5.7813 0 q-0.048828125 0 -0.126953125 0.05859375 q-0.0390625 0.0390625 -0.068359375 0.13671875 l-1.748 8.2422 q-0.01953125 0.107421875 0.01953125 0.166015625 q0.029296875 0.029296875 0.087890625 0.029296875 l3.2227 0 z M24.98996875 16.4844 l-2.8027 0 l0.41016 -1.9727 l-3.1836 0.0097656 l0.56641 -2.7148 l6.0059 -0.0097656 z M46.17146875 13.1738 q-0.048828125 -0.068359375 0.009765625 -0.009765625 q0.83984375 1.07421875 0.48828125 2.744140625 q-0.4296875 2.001953125 -1.89453125 3.1640625 q-1.42578125 1.123046875 -3.193359375 1.123046875 l-0.097656 0 l-1.6797 0 l0.57617 -2.7148 l1.7676 0 q0.615234375 0.029296875 1.07421875 -0.361328125 q0.46875 -0.361328125 0.64453125 -1.2109375 q0.1171875 -0.56640625 -0.107421875 -0.849609375 q-0.390625 -0.48828125 -1.904296875 -0.537109375 l-0.48828 0 l-0.40039 0 l0.57617 -2.7148 l0.38086 0 l0.51758 0 q1.5234375 -0.0390625 2.119140625 -0.52734375 q0.3515625 -0.2734375 0.478515625 -0.859375 q0.17578125 -0.859375 -0.13671875 -1.220703125 q-0.29296875 -0.3515625 -0.91796875 -0.3515625 l-0.058594 0 l-4.6289 0 l-2.3926 11.348 l-2.832 0 l2.9883 -14.063 l7.4023 0 q1.826171875 -0.05859375 2.822265625 1.123046875 q0.9765625 1.171875 0.556640625 3.1640625 q-0.361328125 1.689453125 -1.669921875 2.75390625 q-0.087890625 0.078125 0 0 z M58.652365625 6.122999999999999 l2.8125 0 l-2.9883 14.072 l-2.8125 0 z M84.795234375 6.122999999999999 l-2.9883 14.072 l-2.8027 0 l2.9883 -14.072 l2.8027 0 z M74.140634375 6.122999999999999 l3.125 5.1465 l-0.92773 4.3848 l-3.0371 -5.0098 l-2.0313 9.5508 l-2.8125 0 l2.9883 -14.072 l2.6953 0 z M103.407890625 6.132999999999999 q1.240234375 0 1.9140625 0.87890625 q0.6640625 0.83984375 0.41015625 2.03125 l-1.1426 5.4199 l-2.8027 0 l1.1426 -5.4199 q0.029296875 -0.09765625 -0.01953125 -0.146484375 q-0.0390625 -0.048828125 -0.078125 -0.048828125 l-5.7813 0 q-0.048828125 0 -0.126953125 0.05859375 q-0.0390625 0.0390625 -0.068359375 0.13671875 l-1.748 8.252 q-0.01953125 0.09765625 0.01953125 0.15625 q0.029296875 0.029296875 0.087890625 0.029296875 l8.7305 0 q-0.44921875 1.279296875 -1.416015625 1.97265625 q-0.986328125 0.7421875 -2.109375 0.7421875 l-5.7813 0 q-1.240234375 0 -1.93359375 -0.869140625 q-0.6640625 -0.849609375 -0.41015625 -2.03125 l1.748 -8.252 q0.25390625 -1.19140625 1.298828125 -2.05078125 t2.2852 -0.85938 l5.7813 0 z M125.3706875 13.1738 q-0.048828125 -0.068359375 0.009765625 -0.009765625 q0.83984375 1.07421875 0.48828125 2.744140625 q-0.4296875 2.001953125 -1.89453125 3.1640625 q-1.42578125 1.123046875 -3.193359375 1.123046875 l-0.097656 0 l-1.6797 0 l0.57617 -2.7148 l1.7676 0 q0.615234375 0.029296875 1.07421875 -0.361328125 q0.46875 -0.361328125 0.64453125 -1.2109375 q0.1171875 -0.56640625 -0.107421875 -0.849609375 q-0.390625 -0.48828125 -1.904296875 -0.537109375 l-0.48828 0 l-0.40039 0 l0.57617 -2.7148 l0.38086 0 l0.51758 0 q1.5234375 -0.0390625 2.119140625 -0.52734375 q0.3515625 -0.2734375 0.478515625 -0.859375 q0.17578125 -0.859375 -0.13671875 -1.220703125 q-0.29296875 -0.3515625 -0.91796875 -0.3515625 l-0.058594 0 l-4.6289 0 l-2.3926 11.348 l-2.832 0 l2.9883 -14.063 l7.4023 0 q1.826171875 -0.05859375 2.822265625 1.123046875 q0.9765625 1.171875 0.556640625 3.1640625 q-0.361328125 1.689453125 -1.669921875 2.75390625 q-0.087890625 0.078125 0 0 z M149.521484375 20.19531 l-3.1152 0 l-0.52734 -1.9336 l-2.7344 0 l0.57617 -2.7148 l1.3965 0 l-1.123 -4.1113 l-6.1328 8.7598 l-3.1152 0 l10.449 -14.385 z"/></g>
			</g>
		</svg>
	